<?xml version="1.0" encoding="UTF-8" standalone="no"?>
<!-- Created with Inkscape (http://www.inkscape.org/) -->

<svg
   xmlns:dc="http://purl.org/dc/elements/1.1/"
   xmlns:cc="http://creativecommons.org/ns#"
   xmlns:rdf="http://www.w3.org/1999/02/22-rdf-syntax-ns#"
   xmlns:svg="http://www.w3.org/2000/svg"
   xmlns="http://www.w3.org/2000/svg"
   xmlns:sodipodi="http://sodipodi.sourceforge.net/DTD/sodipodi-0.dtd"
   xmlns:inkscape="http://www.inkscape.org/namespaces/inkscape"
   width="32"
   height="32"
   viewBox="0 0 32 32"
   id="svg2"
   version="1.1"
   inkscape:version="0.91 r13725"
   sodipodi:docname="render_PxrCylinderLight.svg"
   inkscape:export-filename="/Users/plp/Perforce/plp_hellhound17_rman_main/rat/apps/rfm/icons/out_PxrCylinderLight_200.png"
   inkscape:export-xdpi="56.25"
   inkscape:export-ydpi="56.25">
  <defs
     id="defs4" />
  <sodipodi:namedview
     id="base"
     pagecolor="#ffffff"
     bordercolor="#666666"
     borderopacity="1.0"
     inkscape:pageopacity="0.0"
     inkscape:pageshadow="2"
     inkscape:zoom="20.992233"
     inkscape:cx="16"
     inkscape:cy="16"
     inkscape:document-units="px"
     inkscape:current-layer="layer1"
     showgrid="true"
     units="px"
     inkscape:window-width="1920"
     inkscape:window-height="1152"
     inkscape:window-x="0"
     inkscape:window-y="0"
     inkscape:window-maximized="1">
    <inkscape:grid
       type="xygrid"
       id="grid4136"
       empspacing="8"
       dotted="false"
       color="#3f3fff"
       opacity="0.09411765" />
  </sodipodi:namedview>
  <metadata
     id="metadata7">
    <rdf:RDF>
      <cc:Work
         rdf:about="">
        <dc:format>image/svg+xml</dc:format>
        <dc:type
           rdf:resource="http://purl.org/dc/dcmitype/StillImage" />
        <dc:title></dc:title>
      </cc:Work>
    </rdf:RDF>
  </metadata>
  <g
     inkscape:label="Layer 1"
     inkscape:groupmode="layer"
     id="layer1"
     transform="translate(0,-1020.3622)">
    <path
       transform="matrix(0.37057518,-0.35681977,0.3569104,0.37048789,-0.46201975,511.4497)"
       style="opacity:1;fill:#ffe28f;fill-opacity:1;fill-rule:nonzero;stroke:none;stroke-width:1;stroke-linecap:butt;stroke-linejoin:round;stroke-miterlimit:1;stroke-dasharray:none;stroke-dashoffset:0;stroke-opacity:1"
       d="m -684.93336,726.87592 0.13102,0 c 2.45367,0 4.42901,1.83691 4.42901,4.11863 l 0,52.43817 c 0,2.28173 -1.97534,4.11864 -4.42901,4.11864 l -0.13102,0 c -2.45367,0 -4.42901,-1.83691 -4.42901,-4.11864 l 0,-52.43817 c 0,-2.28172 1.97534,-4.11863 4.42901,-4.11863 z"
       id="rect4138" />
    <path
       style="color:#000000;font-style:normal;font-variant:normal;font-weight:normal;font-stretch:normal;font-size:medium;line-height:normal;font-family:sans-serif;text-indent:0;text-align:start;text-decoration:none;text-decoration-line:none;text-decoration-style:solid;text-decoration-color:#000000;letter-spacing:normal;word-spacing:normal;text-transform:none;direction:ltr;block-progression:tb;writing-mode:lr-tb;baseline-shift:baseline;text-anchor:start;white-space:normal;clip-rule:nonzero;display:inline;overflow:visible;visibility:visible;opacity:1;isolation:auto;mix-blend-mode:normal;color-interpolation:sRGB;color-interpolation-filters:linearRGB;solid-color:#000000;solid-opacity:1;fill:#808080;fill-opacity:0.54509804;fill-rule:nonzero;stroke:none;stroke-width:4.44988728;stroke-linecap:butt;stroke-linejoin:round;stroke-miterlimit:1;stroke-dasharray:none;stroke-dashoffset:0;stroke-opacity:1;color-rendering:auto;image-rendering:auto;shape-rendering:auto;text-rendering:auto;enable-background:accumulate"
       d="m 31.5,986.33984 c -6.196331,0 -10.521484,5.41915 -10.521484,11.02149 l 0,45.99997 c 0,5.6024 4.325159,11.0215 10.521484,11.0215 l 1,0 c 6.196325,0 10.521484,-5.4191 10.521484,-11.0215 l 0,-45.99997 c 0,-5.60234 -4.325153,-11.02149 -10.521484,-11.02149 l -1,0 z m 0,4.44922 1,0 c 3.565509,0 6.072266,3.2378 6.072266,6.57227 l 0,45.99997 c 0,3.3345 -2.506783,6.5723 -6.072266,6.5723 l -1,0 c -3.565483,0 -6.072266,-3.2378 -6.072266,-6.5723 l 0,-45.99997 c 0,-3.33447 2.506757,-6.57227 6.072266,-6.57227 z"
       id="path4163"
       inkscape:connector-curvature="0"
       transform="matrix(0.41638908,-0.40093309,0.40103124,0.41628718,-406.52122,624.42872)" />
  </g>
</svg>
