<?xml version="1.0" encoding="utf-8"?>
<!-- Generator: Adobe Illustrator 21.1.0, SVG Export Plug-In . SVG Version: 6.00 Build 0)  -->
<svg version="1.1"
	 id="svg2" inkscape:export-filename="/Users/dsisson/Documents/www.renderman.org/icons/stagin/V21_Icons/svg/render_Luxo_flat_grad.png" inkscape:export-xdpi="90.5" inkscape:export-ydpi="90.5" inkscape:version="0.91 r13725" sodipodi:docname="render_PxrDisney.svg" xmlns:cc="http://creativecommons.org/ns#" xmlns:dc="http://purl.org/dc/elements/1.1/" xmlns:inkscape="http://www.inkscape.org/namespaces/inkscape" xmlns:rdf="http://www.w3.org/1999/02/22-rdf-syntax-ns#" xmlns:sodipodi="http://sodipodi.sourceforge.net/DTD/sodipodi-0.dtd" xmlns:svg="http://www.w3.org/2000/svg"
	 xmlns="http://www.w3.org/2000/svg" xmlns:xlink="http://www.w3.org/1999/xlink" x="0px" y="0px" viewBox="0 0 32 32"
	 style="enable-background:new 0 0 32 32;" xml:space="preserve">
<style type="text/css">
	
		.st0{fill:#3EAFF9;stroke:#0099FF;stroke-width:2.9761;stroke-linecap:round;stroke-linejoin:round;stroke-miterlimit:1;stroke-opacity:0.9961;}
	.st1{fill:#075486;fill-opacity:0.5279;stroke:#075486;stroke-width:1.436;}
	.st2{opacity:0.66;fill:url(#path5327_1_);enable-background:new    ;}
	.st3{fill:#CCCCCC;fill-opacity:0.9412;}
</style>
<sodipodi:namedview  bordercolor="#666666" borderopacity="0.29803922" id="base" inkscape:bbox-nodes="true" inkscape:bbox-paths="true" inkscape:current-layer="layer2" inkscape:cx="6.1816154" inkscape:cy="12.151616" inkscape:document-units="px" inkscape:object-nodes="true" inkscape:object-paths="true" inkscape:pageopacity="0.0" inkscape:pageshadow="2" inkscape:snap-bbox="true" inkscape:snap-bbox-edge-midpoints="true" inkscape:snap-bbox-midpoints="true" inkscape:snap-global="true" inkscape:snap-intersection-paths="true" inkscape:snap-midpoints="true" inkscape:snap-nodes="true" inkscape:snap-smooth-nodes="true" inkscape:window-height="851" inkscape:window-maximized="1" inkscape:window-width="1440" inkscape:window-x="0" inkscape:window-y="0" inkscape:zoom="10.140625" pagecolor="#ffffff" showgrid="true" units="px">
	<inkscape:grid  id="grid4417" type="xygrid"></inkscape:grid>
</sodipodi:namedview>
<g id="layer2" inkscape:groupmode="layer" inkscape:label="main">
	<circle id="path4419" inkscape:export-xdpi="90.5" inkscape:export-ydpi="90.5" class="st0" cx="16" cy="16" r="14.5">
	</circle>
	<path id="path8123" inkscape:connector-curvature="0" class="st1" d="M9.5,5.6c-1.4,0-2.9,0.6-4,1.7c-2,2-2.2,5-0.6,6.6
		c0.9,0.9,2.3,1.3,3.8,1c-0.6,1.2-1,2.5-1,3.9c0,4.5,3.7,8.2,8.2,8.2l0,0c4.5,0,8.2-3.7,8.2-8.2l0,0c0-1.3-0.3-2.5-0.9-3.7
		c1.4,0.2,2.7-0.2,3.5-1c1.7-1.7,1.4-4.7-0.6-6.6c-2-2-5-2.2-6.6-0.6c-1,1-1.4,2.6-0.9,4.2c-0.9-0.3-1.8-0.5-2.8-0.5s-2,0.2-3,0.6
		c0.6-1.7,0.3-3.3-0.8-4.4C11.5,6,10.6,5.6,9.5,5.6z"/>
</g>
<g id="layer3" inkscape:groupmode="layer" inkscape:label="shading">
	<g id="g8257" transform="translate(-13.818385,3.8483838)">
	</g>
	<g id="layer3-1" transform="translate(19,4)" inkscape:label="shading">
		
			<radialGradient id="path5327_1_" cx="-12.2249" cy="11.662" r="16" gradientTransform="matrix(-0.4375 1.4375 -1.3752 -0.4185 12.6889 27.4532)" gradientUnits="userSpaceOnUse">
			<stop  offset="0" style="stop-color:#FFFFFF;stop-opacity:0.6039"/>
			<stop  offset="0.3333" style="stop-color:#FFFFFF;stop-opacity:0"/>
			<stop  offset="0.8333" style="stop-color:#202020;stop-opacity:0.114"/>
			<stop  offset="1" style="stop-color:#000000;stop-opacity:0.353"/>
		</radialGradient>
		<circle id="path5327" class="st2" cx="-3" cy="12" r="16"/>
	</g>
</g>
<path id="path4479" inkscape:connector-curvature="0" inkscape:transform-center-y="1.42268" sodipodi:nodetypes="cccc" class="st3" d="
	M32,32h-6.1l6.1-6.1V32z"/>
</svg>
