/* XPM */
static char *dummy[]={
"20 20 36 1",
". c None",
"j c None",
"c c None",
"b c #be5150",
"a c #c45450",
"# c #cb5550",
"H c #bf504f",
"F c #c34f4d",
"k c #ca4e4a",
"n c #ce504a",
"G c #b94a4b",
"f c #d73228",
"e c #e1554b",
"d c #e47069",
"v c #cc403a",
"o c #cf3d37",
"l c #d73228",
"m c #d83026",
"u c #d83329",
"x c #d9352a",
"i c #da2e23",
"w c #da392f",
"t c #da3d33",
"p c #da4136",
"z c #db2f24",
"C c #db3329",
"A c #db372c",
"q c #db4136",
"r c #db4137",
"s c #db4237",
"E c #dc3125",
"D c #dc352a",
"y c #dc3b31",
"B c #dc3f35",
"h c #e5554a",
"g c #e7746c",
"....................",
"....................",
"....................",
"....................",
"....#aabcccc#aabc...",
"....deef....deef....",
"....ghhiccccghhiccjj",
"..killllllmmmmmminjj",
"..olppppppqrrstuivjj",
"..olssssssssswiiivjj",
"..olssssssssxiiiivjj",
"..olssssssyziiiiivjj",
"..olsssssAiiiiiiivjj",
"..olsssBCiiiiiiiivjj",
"..olssyziiiiiiiiivjj",
"..olBDiiiiiiiiiiivjj",
"..omEiiiiiiiiiiiivjj",
"..FGGGGGGGGGGGGGGHjj",
"....................",
"...................."};
