/* XPM */
static char *dummy[]={
"35 35 793 2",
"Qt c None",
"#Z c #ff2e6c",
".Z c #26a930",
".G c #38a639",
"ce c #1cac2c",
"cf c #1cae2c",
".0 c #28ae32",
".1 c #29ae34",
"gn c #000000",
"am c #f23d63",
"#Y c #9e674d",
"kl c #000000",
".v c #3e9f3d",
"aP c #1caa2c",
".Y c #46b445",
".2 c #2da534",
"k# c #be5251",
"jJ c #c2514f",
"ku c #000000",
".i c #3fa23e",
"#A c #003409",
"ib c #000000",
"aN c #14c02f",
"aO c #1cb02d",
"an c #1fac2d",
".s c #3fa23e",
".u c #40a73f",
".t c #41a840",
"#d c #3b9c3b",
"#e c #26a930",
".H c #2ea635",
"#X c #41291f",
"aM c #4d8e33",
".F c #3ea13d",
"ka c #000000",
"iv c #872925",
"gS c #a22f2b",
"kt c #0f3612",
"bh c #1caa2c",
"#0 c #229b2c",
"kk c #349d37",
".X c #45b344",
".j c #329334",
".w c #287729",
"iQ c #ba3934",
"bL c #1ca92b",
"kw c #000000",
"jP c #50181f",
"j5 c #5a1522",
"j6 c #7a252e",
"jO c #933b3f",
"j7 c #9b3a3d",
"jM c #b44d4f",
"j8 c #ba4b4e",
"jN c #ba5052",
"jL c #c05252",
"k. c #c45454",
"jK c #c65351",
"j9 c #cc5557",
".J c #32a637",
".I c #33b33a",
".# c #39a53b",
"hl c #c83b35",
"iw c #cd3c37",
"ic c #ce3d38",
"hN c #cf3d38",
"jI c #bf4f4e",
"jh c #c84642",
"cd c #1aa62a",
"ji c #c44e4c",
"go c #562519",
"iR c #c94340",
"#B c #25a52f",
"km c #000000",
".r c #3fa23e",
"ia c #372113",
"ao c #20a12d",
"fW c #000000",
"cJ c #1cad2c",
"cK c #1cae2c",
"#f c #28ae32",
"#g c #29ae34",
"al c #9e664c",
"#h c #29a533",
"j4 c #3f682d",
".K c #2d8f31",
"jQ c #170107",
".W c #44b043",
"fX c #14270d",
"cI c #14a229",
".3 c #2da534",
"ak c #a3634c",
"aL c #935a3b",
"kv c #000000",
"bf c #13bb2e",
"bg c #1caf2d",
"aQ c #1fa92d",
".h c #3fa23e",
".E c #40a73f",
".D c #41a840",
"hM c #000000",
"be c #319729",
"#W c #1f180f",
"kn c #000000",
".C c #3fa23e",
"kb c #000000",
".q c #3fa23e",
"hL c #0f270c",
"aR c #20a82e",
"#i c #2ca533",
"#c c #3c9c3b",
"aj c #8c483c",
"kc c #000000",
"#z c #0f4316",
".B c #3fa23e",
"bd c #864722",
"bz c #000000",
"kd c #000200",
"by c #001004",
"fy c #010b02",
"a7 c #021002",
"bx c #022c0e",
"fz c #023c0e",
"ko c #040a04",
"ke c #050f05",
"fd c #056618",
"jR c #060001",
"hk c #062208",
"hj c #062309",
"b2 c #070000",
"kp c #071508",
"bJ c #07a928",
"b3 c #080101",
"b1 c #080702",
"jS c #080704",
"cb c #08781d",
"eW c #08821f",
"fc c #093c0f",
"kq c #0b200c",
"eG c #0b9424",
"bw c #0c4b18",
"eo c #0d9e27",
"d4 c #0da529",
"ej c #0da829",
"jT c #0e170a",
"gR c #0e4d13",
"gQ c #0e4e14",
"eV c #0e5b17",
"dD c #0ea429",
"kf c #0f290f",
"eC c #0fad2b",
"kr c #102c10",
"hi c #105216",
"d7 c #10a529",
"gm c #116319",
"gl c #11641a",
"eE c #116d1c",
"eF c #116e1c",
"b0 c #123010",
"ks c #123413",
"da c #12a72a",
"eT c #12ae2c",
"jq c #14150b",
"jU c #142c11",
"a6 c #143b15",
"fV c #14761f",
"fU c #14771f",
"em c #148121",
"en c #148221",
"bA c #15060c",
"fa c #15a72b",
"dH c #15ad2b",
"d5 c #168e24",
"cj c #168e26",
"bv c #176d23",
"fx c #178a24",
"bM c #178b24",
"bN c #178c24",
"d6 c #179225",
"el c #179726",
"ek c #179826",
"fw c #179d29",
"jr c #182511",
"aZ c #183112",
"iL c #185a1b",
"gP c #187d21",
"cg c #189226",
"dF c #189425",
"dE c #189525",
"jV c #193d18",
"kg c #19471a",
"gk c #198824",
"fT c #199126",
"fb c #199a28",
"cL c #199c28",
"cc c #199f28",
"eD c #19a128",
"de c #19af2d",
"gi c #19b130",
"aY c #1a4517",
"af c #1a481a",
"fA c #1a6b1d",
"cO c #1a701f",
"bn c #1a8627",
"dG c #1aa128",
"eU c #1aa529",
"dd c #1aa52a",
"bS c #1b561c",
"h9 c #1b8627",
"cH c #1b8e25",
"bO c #1b9a28",
"cM c #1ba82c",
"bK c #1bb42e",
"hh c #1c8925",
"ch c #1ca12a",
"a8 c #1d100e",
"jW c #1d4a1c",
"bi c #1da42b",
"cN c #1da52b",
"db c #1db02d",
"dc c #1db12d",
"ag c #1e2b14",
"bZ c #1e501a",
"fe c #1e8423",
"df c #1ea52c",
"bj c #1ea62c",
"ci c #1ea72c",
"jX c #1f511e",
"d# c #1f8c25",
"dI c #1fa42b",
"fS c #1fa82e",
"d8 c #20a42b",
"fv c #20a72c",
"bP c #20a92d",
"he c #20ad33",
"jY c #215a21",
"hK c #215f1d",
"#y c #216925",
"aX c #217124",
"bu c #217e29",
"bR c #21942b",
"eX c #219828",
"f# c #21a62b",
"bk c #21a92e",
"gj c #21ac2e",
"iM c #223f14",
"a0 c #226421",
"ck c #22681e",
"dC c #229f29",
"ap c #22a22e",
"bm c #22a42f",
"eH c #22a52b",
"eS c #22a52c",
"aS c #22a62e",
"ep c #22a72b",
"gO c #22ab2e",
"bQ c #22ae30",
"js c #23421c",
"bo c #236622",
"aw c #237c28",
"av c #23852a",
"eB c #23a42b",
"d3 c #23a72b",
"aT c #23a730",
"gN c #23ac30",
"bl c #23af31",
"is c #24581b",
"kh c #246425",
"iK c #247224",
"hg c #24a22e",
"ei c #24a52a",
"#1 c #24a62f",
"gM c #24a730",
"aq c #24a831",
"aD c #256a26",
"bt c #257826",
"ir c #258529",
"hJ c #258e2b",
"aW c #25982d",
"gL c #25a731",
"aU c #25a831",
"hf c #25ae33",
"#V c #26391a",
"aE c #265221",
"a5 c #266d27",
"au c #26962e",
"ar c #26a831",
"bI c #277d21",
"h8 c #27a432",
"hI c #27a832",
"aV c #27ad32",
"#2 c #27ae33",
"jZ c #286b28",
"iq c #289930",
"gh c #28a42f",
"at c #28a431",
"#3 c #28a933",
"as c #28ab32",
"ax c #298f2f",
"#4 c #29a632",
"hH c #29a732",
"#C c #29b634",
"i. c #2a6221",
"hG c #2aa633",
"hF c #2aa734",
"hE c #2aa735",
"#E c #2aaf35",
"bY c #2b591c",
".x c #2b822d",
"iJ c #2b892e",
"hd c #2ba432",
"#5 c #2ba633",
"#F c #2ba733",
"h5 c #2bab37",
"#D c #2bb837",
"jp c #2c1813",
"iZ c #2c752d",
"a1 c #2c902f",
"ip c #2c9c31",
"#G c #2ca433",
"hD c #2ca636",
"h4 c #2ca838",
"h6 c #2cac36",
"b4 c #2d1412",
"jt c #2d6729",
"j0 c #2d7c2e",
"aC c #2d802e",
".L c #2d8b30",
"#6 c #2da935",
"h7 c #2daf36",
"#U c #2e6227",
"h. c #2e9c34",
"#H c #2ea534",
"g9 c #2ea637",
"ca c #2f4b16",
"i0 c #2f7a2f",
"jA c #2f7f2c",
"ki c #2f8530",
"hC c #2fa637",
"g8 c #2fa839",
"#7 c #2fab37",
"#x c #308932",
"ay c #309e35",
"io c #309f35",
"#I c #30a637",
"h3 c #30a638",
"fY c #314d1b",
"ae c #318731",
"j# c #318d31",
".6 c #31a237",
"#8 c #31ac38",
"#j c #31b038",
"ja c #326b29",
"iI c #329b36",
".7 c #329c36",
"a2 c #32a436",
"#J c #32a638",
"#l c #32a738",
"#9 c #32a938",
"#k c #32ac38",
"#T c #337f31",
"j1 c #338e34",
"a4 c #339835",
"#m c #33a237",
"hB c #33a438",
"#K c #33a538",
".5 c #33ab38",
"bT c #343318",
"aB c #349435",
"jz c #349936",
".k c #349a36",
".M c #349c37",
"j. c #349e38",
".8 c #34a038",
"#n c #34a238",
"iH c #34a239",
"#L c #34a338",
"h2 c #34a438",
"az c #34a638",
"im c #34aa3f",
".4 c #34b73b",
"kj c #359737",
".y c #359c37",
"gE c #359f35",
"#o c #35a339",
"a. c #35a438",
"a3 c #35a739",
"dg c #365b1c",
"i1 c #368233",
"ju c #368534",
"gF c #368e30",
"j3 c #369636",
"j2 c #369a37",
"g7 c #36a239",
".9 c #36a339",
"#M c #36a438",
"hz c #36a53b",
"jb c #374821",
"a# c #37a239",
"#p c #37a339",
"hA c #37a33a",
"hy c #37a43b",
"h1 c #37a53c",
"h0 c #37a53d",
"aA c #37a73a",
"cP c #384318",
"#S c #389237",
"#q c #38a23a",
"#. c #38a339",
"#N c #38a33a",
"aa c #38a43a",
".N c #38a43b",
"i9 c #38a63b",
"ah c #39281c",
"jc c #39381e",
"bp c #394720",
"## c #39a23a",
"#r c #39a33b",
"hZ c #39a33d",
".l c #39a53b",
"i2 c #3a9038",
"gD c #3aa037",
".O c #3aa33b",
".m c #3aa33c",
".z c #3aa43c",
"in c #3aa43e",
"jy c #3aa63c",
"fu c #3b8e2a",
"#R c #3b9c3b",
".c c #3ba13c",
".P c #3ba23b",
".n c #3ba23c",
"#O c #3ba43c",
"jx c #3ba53c",
"i8 c #3ba63b",
"ab c #3ba73d",
".a c #3baa3d",
"i3 c #3c9b3b",
".d c #3ca13c",
"#w c #3ca13d",
".Q c #3ca23c",
"#Q c #3ca33d",
"ad c #3ca43d",
"i7 c #3ca63d",
".b c #3caa3e",
"jv c #3d9b3b",
".R c #3da03c",
".e c #3da03d",
".o c #3da13c",
"#s c #3da13d",
"#t c #3da23d",
"#P c #3da33d",
"jw c #3da53d",
"i6 c #3da73e",
"ac c #3da93d",
"jB c #3e4c25",
"fR c #3e912c",
".f c #3ea03d",
".A c #3ea13d",
"iG c #3ea43d",
"iF c #3ea940",
"iE c #3eab40",
"#a c #3fa23e",
"i4 c #3fa33e",
"#u c #3fa53f",
"i5 c #3fa63f",
"aF c #403523",
"iY c #406b2d",
"gK c #40952f",
"hx c #409e3b",
"bs c #415b25",
"il c #41a23d",
".p c #41a83f",
".S c #41a840",
"#b c #41aa40",
"cG c #42561b",
".T c #42ab41",
"#v c #42ac41",
"hc c #439531",
".g c #43ac41",
".U c #44b043",
".V c #44b143",
"i# c #453d1c",
"hY c #459b3b",
"iD c #45a840",
"it c #463c1b",
"h# c #488a31",
"iN c #4b220d",
"cr c #4c2913",
"cl c #4d3517",
"gC c #4d9136",
"g6 c #4f9136",
"cs c #502714",
"jd c #502c1e",
"jC c #552122",
"bq c #563322",
"gg c #56842c",
"jo c #582623",
"dJ c #58531e",
"hX c #5b8a37",
"aG c #5c2826",
"f. c #5c7727",
"ga c #5c7f2e",
"gp c #5e301d",
"ik c #5e8b37",
"iC c #5e8f39",
"gq c #5f5020",
"fZ c #5f5a21",
"hb c #60822f",
"hw c #608536",
"bU c #65281f",
"br c #653225",
"g# c #657f2f",
"ct c #662215",
"dh c #662f1a",
"ai c #66352c",
"bX c #69542a",
"iX c #695c2e",
"gG c #6a6b2a",
"fB c #6d5c23",
"ft c #6d6a26",
"ha c #6d782e",
"g5 c #6d7b32",
"gJ c #6e762c",
"jD c #6f2b2c",
"d. c #73481d",
"iu c #752d22",
"gV c #76401f",
"hW c #767934",
"gr c #775d26",
"cF c #792f18",
"gB c #7a7130",
"gU c #7b371f",
"d9 c #7b5422",
"cm c #7c2319",
"aH c #7c2a2b",
"g. c #7e6f2d",
"cq c #7f2f1e",
"cW c #801a18",
"eR c #806527",
"iO c #82231b",
"je c #832422",
"cQ c #84291b",
"gf c #846428",
"iB c #856c31",
"cu c #871b17",
"ff c #875826",
"gb c #876029",
"g4 c #876a30",
"ho c #89231b",
"fQ c #896027",
"dB c #8b5222",
"cX c #8c1d1a",
"ij c #8c6530",
"eq c #8e5725",
"fM c #8e632a",
"cv c #8f1b17",
"jE c #8f3938",
"cw c #901c16",
"cx c #911e17",
"a9 c #914945",
"eA c #915c26",
"f0 c #925829",
"bH c #93391b",
"eY c #945727",
"hV c #946532",
"dK c #95271e",
"gT c #953027",
"eI c #965a28",
"d2 c #975625",
"eh c #985725",
"e9 c #9a4d23",
"fL c #9a5b29",
"hp c #9c472b",
"cV c #9e221e",
"cy c #9e251e",
"jn c #9e3f3e",
"bV c #a03230",
"hn c #a22421",
"gI c #a25428",
"hv c #a2552b",
"f9 c #a35229",
"aI c #a43f3c",
"g3 c #a4572e",
"gW c #a54e2e",
"c# c #a72d1b",
"fN c #a85027",
"hR c #aa392a",
"cn c #ac2922",
"gA c #ad4e29",
"cY c #ae2721",
"iP c #ae362f",
"ge c #b14826",
"fC c #b14b2b",
"jF c #b24546",
"hq c #b25233",
"bB c #b25a58",
"jf c #b33132",
"hS c #b33c2d",
"ii c #b34128",
"di c #b5372a",
"iW c #b54631",
"hU c #b54d2f",
"c9 c #b6211c",
"gH c #b64526",
"fs c #b74123",
"fK c #b74626",
"gs c #b74f32",
"cR c #b82622",
"hQ c #b82a22",
"ih c #b83328",
"bc c #b9362d",
"bW c #b9443a",
"f8 c #bb4328",
"fP c #bc3e23",
"iA c #bc4127",
"aK c #be5c49",
"e. c #c02723",
"jl c #c04b4b",
"cE c #c12c1f",
"ig c #c12e28",
"aJ c #c1564a",
"gX c #c24f36",
"eQ c #c33723",
"b5 c #c3605a",
"hm c #c43832",
"jm c #c64c4d",
"hu c #c73f2a",
"do c #c8382f",
"hT c #c83a2b",
"g2 c #c8412c",
"f1 c #c84833",
"hr c #c94a35",
"jG c #ca5051",
"jH c #ca5352",
"fp c #cb3723",
"dp c #cb3930",
"jk c #cb504f",
"bG c #cc312b",
"b. c #cc5b54",
"hP c #cd302a",
"fo c #cd3522",
"jg c #cd4642",
"co c #ce312b",
"gc c #ce3423",
"cp c #ce372d",
"dn c #ce3a31",
"f7 c #ce3b29",
"bb c #ce4d44",
"jj c #ce5250",
"e8 c #cf3222",
"fq c #cf3322",
"gd c #cf3423",
"gz c #cf3827",
"fg c #cf3a2a",
"dL c #cf3c31",
"dq c #d13b32",
"dA c #d22320",
"c8 c #d22d24",
"hO c #d23c36",
"cz c #d24037",
"gY c #d24737",
"fn c #d43426",
"fD c #d44234",
"eP c #d52f23",
"er c #d62926",
"c4 c #d62e24",
"dz c #d62e25",
"cU c #d63228",
"e# c #d63b32",
"ht c #d63c2f",
"ix c #d63c36",
"id c #d63e38",
"hs c #d64133",
"gt c #d64637",
"c6 c #d72f25",
"c5 c #d73026",
"iU c #d73933",
"eN c #d82d22",
"if c #d83026",
"cS c #d83329",
"dx c #d83a30",
"iS c #d84742",
"e6 c #d92c21",
"ez c #d92c22",
"ee c #d92d22",
"ev c #d92e24",
"eM c #d93025",
"ed c #d93228",
"dy c #d9352b",
"dZ c #d9382d",
"dj c #d93b32",
"dY c #d93c32",
"dw c #d93d32",
"dm c #d93d33",
"fh c #d93f34",
"dO c #d94237",
"b# c #d95249",
"ew c #da2c20",
"ex c #da2c21",
"ey c #da2c22",
"d0 c #da2e24",
"c3 c #da2f25",
"ec c #da392f",
"du c #da3c33",
"dk c #da3e33",
"dv c #da3e34",
"eb c #da3f34",
"fk c #da3f35",
"dX c #da4036",
"eu c #da4136",
"gu c #da4137",
"dU c #da4236",
"dP c #da4237",
"eK c #da4238",
"fF c #da4337",
"ba c #da5149",
"fJ c #db2d24",
"cZ c #db342a",
"fm c #db362d",
"f6 c #db382e",
"es c #db3c33",
"e1 c #db3d33",
"fG c #db3e34",
"gw c #db4036",
"f3 c #db4037",
"eL c #db4136",
"fj c #db4137",
"dV c #db4138",
"dN c #db4237",
"dW c #db4238",
"et c #db4338",
"eO c #dc2b21",
"fr c #dc2b22",
"ef c #dc2c22",
"c7 c #dc3026",
"g1 c #dc382e",
"cC c #dc3a30",
"cB c #dc3b30",
"fl c #dc3b31",
"dl c #dc3e33",
"e0 c #dc3e34",
"gv c #dc4137",
"fi c #dc4138",
"iT c #dc413a",
"iz c #dd2921",
"e5 c #dd2a22",
"gx c #dd3b32",
"dt c #dd3d34",
"dr c #dd3f33",
"f4 c #dd3f35",
"ea c #dd4338",
"bF c #dd5147",
"cD c #de3028",
"eZ c #de3029",
"c. c #de332d",
"e2 c #de342c",
"fH c #de372d",
"ds c #de3f33",
"gZ c #de3f35",
"f2 c #de4137",
"dT c #de4338",
"eJ c #df2c29",
"dQ c #df4338",
"d1 c #e02421",
"e4 c #e02a23",
"e3 c #e02f26",
"iy c #e0352b",
"f5 c #e03a32",
"fE c #e03f38",
"e7 c #e12821",
"fI c #e12d27",
"gy c #e1312a",
"iV c #e13833",
"g0 c #e13932",
"dS c #e14438",
"eg c #e22621",
"cT c #e2352a",
"dR c #e24438",
"dM c #e34339",
"cA c #e3453a",
"fO c #e42521",
"c2 c #e4342a",
"ie c #e4382f",
"b9 c #e45146",
"b7 c #e45449",
"b8 c #e55348",
"c1 c #e6352a",
"c0 c #e6362b",
"bE c #e8584d",
"bD c #ec5b50",
"bC c #f27068",
"b6 c #f66f65",
"QtQtQtQtQtQtQtQtQtQt.#.a.b.c.d.e.f.g.h.iQtQtQtQtQtQtQtQtQtQtQtQtQtQtQt",
"QtQtQtQtQtQtQtQtQtQt.j.k.l.m.n.d.o.p.q.r.s.s.t.u.vQtQtQtQtQtQtQtQtQtQt",
"QtQtQtQtQtQtQtQtQtQt.w.x.y.z.n.d.o.A.B.C.h.h.D.E.FQtQtQtQtQtQtQtQtQtQt",
"QtQtQtQtQtQt.G.H.I.J.K.L.M.N.O.P.Q.R.A.S.g.T.U.V.W.X.YQtQtQtQtQtQtQtQt",
"QtQtQt.Z.0.1.2.3.4.5.6.7.8.9#.##.O.Q.o.o#a#a.A.f#b#c#dQtQtQtQtQtQtQtQt",
"QtQtQt#e#f#g#h#i#j#k#l#m#n#o#p#q#r.n#s#t#u#v#w#x#y#z#AQtQtQtQtQtQtQtQt",
"QtQtQt#B#C#D#E#F#G#H#I#J#K#L#M#p#N#O#P#Q#R#S#T#U#V#W#X#Y#ZQtQtQtQtQtQt",
"QtQtQt#0#1#2#3#4#5#6#7#8#9#Ka.a#aaabacadaeafagahaiajakalamQtQtQtQtQtQt",
"QtananaoapaqarasatauavawaxayazaA#paBaCaDaEaFaGaHaIaJaKaLaMaNaOaPQtQtQt",
"QtaQaQaRaSaTaUaVaWaXaYaZa0a1a2a3a4a5a6a7a8a9b.b#babbbcbdbebfbgbhQtQtQt",
"QtbibibjbkblbmbnbobpbqbrbsbtbubvbwbxbybzbAbBbCbDbEbFbGbHbIbJbKbLQtQtQt",
"QtbMbNbObPbQbRbSbTbUbVbWbXbYbZb0b1b2b2b3b4b5b6b7b8b9c.c#cacbcccdcecfQt",
"QtcgcgchcicjckclcmcncocpcqcrcsctcucvcwcxcyczcAcBcCcCcDcEcFcGcHcIcJcKQt",
"QtcLcLcMcNcOcPcQcRcScTcUcVcWcXcYcZc0c1c1c2c3c4c5c5c6c7c8c9d.d#dadbdcQt",
"QtdddddedfdgdhdidjdkdldmdndodpdqdkdrdsdsdtdudmdvdwdxdydzdAdBdCdDdEdFQt",
"QtdGdGdHdIdJdKdLdMdNdOdPdQdRdSdTdPdUdNdNdVdWdPdXdYdZcSd0d1d2d3d4d5d5Qt",
"Qtd6d6d7d8d9e.e#eadNdPdPdNdNdNdNdPdUdNdNdNdNebecedeeeeefegeheiejekelQt",
"QtemeneoepeqeresetdNdNdNdNdNdNdNdNdNdNeteudwdZedevewexeyezeAeBeCeDeDQt",
"QteEeFeGeHeIeJdteKdNdNdNdNdNdNdPdPeLeLeLdkdyeMeNexexeOePeQeReSeTeUeUQt",
"QteVeVeWeXeYeZe0dWdNdNdNdNdNdNdPdPeLe1e2e3e4e5e6eeexe7e8e9f.f#fafbfbQt",
"QtfcfcfdfefffgfhfifjdPdNdNdPdPeufkflfmfnfofpfqeefreyeNfsftfufvfwfxfxQt",
"QtfyfyfzfAfBfCfDfEfjdPdNdNdPfFfGfHfIfJfKfLfMfNeNfOeyfPfQfRfSbPfTfUfVQt",
"QtfWfWfXfYfZf0f1f2f3fjeLfjf4f5f6f7f8f9g.g#gagbgcgdgegfggghgigjgkglgmQt",
"QtgngngogpgqgrgsgtgugveLgwgxgygzgAgBgCgDgEgFgGgHgIgJgKgLgMgNgOgPgQgRQt",
"QtQtQtgSgTgUgVgWgXgYgZg0g1g2g3g4g5g6g7g8g9h.h#hahbhchdhehfhghhhihjhkQt",
"QtQtQthlhmhnhohphqhrhshthuhvhwhxhyhzhAa#a.hBhChDhEhFhGhHhIhJhKhLhMhMQt",
"QtQtQthNhOhPhQhRhShThUhVhWhXhYhZh0h1hA#p#Mh2h3h4h5h6h7h8h9i.i#iaibibQt",
"QtQtQticidieifigihiiijikilimin#Q#t.n#r#q#p#o#L#mioipiqirisitiuivQtQtQt",
"QtQtQtiwixiyefiziAiBiCiDiEiF#uiG.A.Q.O###..9iHiIiJiKiLiMiNiOiPiQQtQtQt",
"QtQtQtiRiSiTiUiViWiXiYiZi0i1i2i3i4i5i6i7i8i9j.j#jajbjcjdjejfjgjhQtQtQt",
"QtQtQtjijjjkjljmjnjojpjqjrjsjtjujv.A#PjwjxjyjzjAjBjCjDjEjFjGjHjIQtQtQt",
"QtQtQtjJjKjLjMjNjOjPjQjRjSjTjUjVjWjXjYjZj0j1j2j3j4j5j6j7j8j9k.k#QtQtQt",
"QtQtQtQtQtQtQtQtQtQtkahMhMhMhMkbkckdkekfkgkhkikjkkQtQtQtQtQtQtQtQtQtQt",
"QtQtQtQtQtQtQtQtQtQtklibibibibkmknbzbzkokpkqkrksktQtQtQtQtQtQtQtQtQtQt",
"QtQtQtQtQtQtQtQtQtQtQtQtQtQtQtkukvbzbzbzbzbzbzbzkwQtQtQtQtQtQtQtQtQtQt"};
